<?xml version="1.0" standalone="no"?>
<!DOCTYPE svg PUBLIC "-//W3C//DTD SVG 20010904//EN"
 "http://www.w3.org/TR/2001/REC-SVG-20010904/DTD/svg10.dtd">
<svg version="1.0" xmlns="http://www.w3.org/2000/svg"
 width="500.000000pt" height="500.000000pt" viewBox="0 0 500.000000 500.000000"
 preserveAspectRatio="xMidYMid meet">
<metadata>
Created by potrace 1.14, written by Peter Selinger 2001-2017
</metadata>
<g transform="translate(0.000000,500.000000) scale(0.100000,-0.100000)"
fill="#000000" stroke="none">
<path d="M2316 4711 c-3 -4 -20 -7 -38 -6 -18 1 -39 -3 -45 -8 -9 -6 -13 -5
-13 2 0 7 -5 9 -12 5 -7 -5 -33 -9 -58 -11 -25 -2 -72 -5 -105 -8 -33 -3 -86
-6 -117 -8 -32 -1 -58 -4 -58 -7 0 -3 -19 -6 -42 -7 -120 -4 -178 -8 -178 -13
0 -3 -24 -5 -53 -6 -28 0 -69 -4 -91 -8 -24 -4 -44 -2 -52 5 -11 9 -15 8 -20
-4 -4 -11 -18 -14 -52 -12 -26 1 -51 0 -56 -2 -8 -6 -101 -13 -203 -16 -29 -1
-53 -4 -53 -7 0 -3 -18 -5 -40 -4 -22 0 -40 -4 -40 -10 0 -7 -3 -7 -8 -1 -8
12 -37 13 -48 2 -12 -12 -26 -8 -18 6 6 9 4 9 -7 1 -15 -11 -49 -15 -136 -18
-29 0 -53 -3 -53 -6 0 -3 -12 -5 -27 -4 -16 0 -40 -3 -55 -7 -17 -5 -28 -4
-28 2 0 6 -7 3 -16 -6 -9 -9 -24 -13 -32 -10 -9 3 -13 3 -9 -1 4 -4 -7 -14
-24 -21 -17 -7 -28 -17 -24 -23 4 -6 3 -10 -2 -9 -18 4 -43 -14 -43 -33 0 -10
-5 -16 -10 -13 -6 3 -10 -3 -10 -14 0 -12 -4 -21 -10 -21 -5 0 -10 -11 -10
-25 0 -14 -4 -25 -8 -25 -4 0 -8 -36 -8 -79 1 -44 4 -77 7 -75 4 2 7 -13 7
-34 0 -20 3 -66 7 -102 3 -36 7 -88 9 -116 1 -28 6 -56 10 -62 4 -7 2 -12 -6
-12 -8 0 -9 -3 -3 -8 6 -4 11 -20 12 -37 1 -16 3 -51 5 -77 1 -27 5 -48 8 -48
3 0 4 -21 3 -47 0 -27 1 -52 4 -56 3 -5 7 -34 9 -65 5 -103 14 -216 19 -267 3
-27 7 -72 9 -100 2 -27 4 -50 5 -50 1 0 3 -30 5 -66 2 -37 6 -72 10 -77 3 -6
2 -13 -4 -17 -6 -4 -7 -12 -1 -24 6 -10 12 -58 15 -107 2 -49 5 -89 6 -89 3 0
9 -71 11 -122 1 -24 7 -43 13 -43 7 0 8 -3 1 -8 -9 -6 -12 -27 -5 -34 1 -2 4
-28 6 -58 6 -108 11 -151 17 -157 4 -3 2 -12 -4 -20 -6 -7 -7 -13 -2 -13 5 0
10 -15 10 -32 2 -92 6 -129 15 -134 5 -3 5 -11 1 -17 -8 -11 -9 -34 -3 -47 3
-6 8 -34 12 -67 1 -13 6 -23 10 -23 4 0 8 -9 8 -20 0 -11 5 -20 10 -20 6 0 10
-5 10 -10 0 -13 57 -70 70 -70 6 0 10 -5 10 -11 0 -5 5 -7 10 -4 6 3 10 1 10
-6 0 -7 3 -9 6 -6 4 3 16 1 27 -5 12 -6 50 -10 86 -9 88 3 186 9 186 11 0 3
50 8 120 11 33 2 66 7 73 12 8 6 12 5 12 -2 0 -8 6 -9 18 -3 9 4 38 8 64 8 27
-1 48 1 48 5 0 3 17 6 38 7 139 6 162 7 162 12 0 3 30 5 68 5 37 0 72 2 77 5
6 2 33 5 60 6 28 1 50 3 50 4 0 1 16 3 35 4 20 2 34 7 33 14 -2 7 4 9 14 5 10
-4 14 -2 10 4 -4 6 0 14 9 17 8 3 13 10 9 15 -3 5 -1 12 4 15 18 11 -11 86
-34 86 -8 0 -15 4 -15 8 0 11 -81 12 -102 1 -12 -7 -18 -6 -18 2 0 6 -7 8 -17
4 -10 -3 -45 -9 -78 -11 -91 -8 -130 -12 -130 -14 0 -1 -29 -3 -65 -6 -36 -2
-92 -6 -125 -9 -33 -3 -82 -7 -110 -10 -27 -2 -81 -7 -120 -9 -38 -3 -70 -6
-70 -6 0 -2 -93 -9 -172 -14 -64 -4 -75 -2 -95 18 -13 12 -25 29 -26 37 -6 24
-13 101 -14 157 -1 28 -4 52 -7 52 -3 0 -6 19 -5 43 0 23 -3 59 -7 79 -3 22
-2 41 4 47 8 8 7 11 -2 11 -7 0 -9 5 -6 10 3 6 3 16 -1 22 -5 7 -9 46 -11 88
-5 121 -7 140 -17 140 -4 0 -3 6 3 13 6 8 8 17 4 20 -3 4 -7 31 -9 59 -1 29
-3 53 -4 53 -1 0 -3 25 -4 55 -2 30 -6 66 -10 79 -6 17 -5 22 4 16 9 -6 9 -3
2 11 -13 24 -13 28 -14 94 0 25 -4 55 -9 67 -5 13 -4 25 2 28 5 4 6 11 3 17
-7 10 -9 31 -20 153 -3 39 -6 79 -7 90 -1 11 -6 25 -10 32 -4 6 -3 13 3 15 6
2 7 15 2 33 -4 17 -8 49 -8 73 1 23 -3 42 -8 42 -5 0 -3 6 3 14 8 9 8 16 2 20
-6 4 -9 22 -7 41 1 19 -1 35 -5 35 -4 0 -6 20 -4 45 1 25 -2 45 -8 45 -5 0 -5
6 2 13 6 8 8 16 5 19 -3 3 -7 32 -10 64 -8 92 -12 139 -14 139 0 0 -3 36 -6
80 -2 44 -6 96 -8 115 -4 40 3 100 13 98 3 -1 19 4 35 11 16 6 43 11 60 11 17
0 51 3 76 5 59 6 130 13 205 19 33 3 60 5 60 6 0 1 79 8 175 14 30 2 55 5 55
6 0 1 26 3 58 5 71 5 113 11 126 19 5 4 12 2 15 -3 5 -7 41 -8 41 -1 0 2 89
10 160 15 39 2 70 4 70 5 0 3 111 11 163 13 23 1 42 4 42 7 0 3 24 6 53 7 28
1 77 4 107 7 68 8 68 8 107 3 17 -2 30 0 27 4 -2 4 4 8 13 8 45 -1 171 9 179
13 8 5 71 3 84 -2 3 -1 10 -1 15 0 5 1 7 -2 3 -6 -4 -4 -1 -12 8 -19 9 -6 17
-26 17 -43 1 -18 4 -32 7 -32 3 0 6 -24 7 -53 2 -28 5 -79 8 -112 3 -33 7 -82
8 -110 1 -27 5 -54 7 -60 3 -5 5 -29 5 -52 -1 -24 3 -43 8 -43 5 0 4 -6 -2
-13 -6 -8 -8 -17 -4 -21 4 -3 8 -26 9 -49 4 -59 18 -232 30 -347 3 -30 6 -72
7 -92 1 -21 6 -38 10 -38 5 0 6 -3 4 -7 -3 -5 5 -17 16 -28 11 -12 17 -14 13
-5 -6 11 -4 11 6 -1 18 -22 69 -17 100 10 25 22 25 26 22 119 -5 109 -6 122
-17 140 -5 6 -5 12 0 12 4 0 8 14 8 30 0 17 -2 30 -5 30 -5 0 -12 85 -13 158
-1 23 -3 42 -6 42 -4 0 -7 24 -8 53 -3 68 -10 172 -13 172 -2 0 -8 77 -10 143
-1 28 -5 52 -9 52 -3 0 -7 28 -8 63 -1 71 -6 103 -16 113 -4 4 -7 16 -7 26 0
10 -4 18 -10 18 -5 0 -10 7 -10 15 0 8 -4 15 -10 15 -5 0 -10 6 -10 14 0 8 -5
18 -12 22 -7 5 -8 2 -3 -7 4 -8 -5 -2 -21 13 -16 15 -36 28 -44 30 -8 2 -21 9
-28 16 -16 14 -237 17 -246 3z"/>
<path d="M1628 4025 c-1 -2 -23 -6 -48 -9 -40 -5 -61 -10 -122 -32 -10 -4 -18
-10 -18 -15 0 -5 -6 -6 -12 -4 -19 7 -153 -107 -141 -119 4 -3 1 -6 -6 -6 -7
0 -9 -4 -6 -10 3 -5 -1 -10 -10 -10 -9 0 -14 -4 -10 -9 3 -5 -2 -17 -11 -25
-9 -9 -17 -22 -18 -29 -2 -6 -6 -20 -10 -29 -4 -9 -9 -22 -10 -30 -2 -7 -6
-20 -10 -29 -15 -34 -10 -219 7 -219 4 0 6 -4 3 -8 -7 -12 31 -72 46 -73 63
-4 88 -3 88 5 0 5 7 14 16 20 17 13 27 93 13 101 -4 3 -6 14 -4 25 2 11 0 22
-6 25 -6 4 -5 13 1 24 6 12 5 22 -2 29 -9 9 -9 12 1 12 7 0 10 4 6 9 -3 5 -1
12 4 16 5 3 8 14 6 25 -2 12 2 20 10 20 8 0 12 6 9 14 -3 7 7 23 23 36 15 12
27 24 26 26 -7 11 -2 24 7 19 6 -3 10 -1 10 5 0 6 5 8 10 5 6 -3 10 -2 10 4 0
13 58 44 69 36 5 -3 11 0 13 6 5 16 178 14 178 -2 0 -4 14 -10 31 -14 17 -4
33 -13 36 -21 2 -7 14 -16 25 -20 11 -3 17 -8 15 -11 -3 -3 8 -18 24 -35 16
-17 26 -35 23 -39 -3 -5 2 -16 10 -24 8 -9 13 -22 9 -30 -3 -9 -1 -21 5 -28 5
-6 6 -21 2 -32 -4 -11 -4 -28 1 -37 6 -10 5 -19 -1 -23 -5 -3 -10 -17 -10 -30
0 -13 -5 -27 -10 -30 -6 -4 -8 -11 -5 -16 4 -5 1 -9 -4 -9 -6 0 -11 -7 -11
-16 0 -9 -5 -12 -12 -8 -8 5 -9 2 -4 -12 4 -10 4 -16 1 -12 -3 3 -22 -10 -41
-30 -19 -19 -34 -32 -34 -27 0 4 -7 2 -15 -5 -8 -7 -15 -9 -15 -4 0 5 -4 3 -9
-5 -5 -8 -17 -16 -26 -17 -9 -1 -25 -10 -36 -20 -10 -9 -19 -13 -19 -8 0 5 -7
0 -15 -10 -8 -11 -15 -16 -15 -11 0 5 -11 -7 -25 -26 -13 -19 -28 -39 -33 -44
-11 -13 -26 -65 -25 -87 0 -10 -3 -18 -8 -18 -5 0 -6 -17 -2 -37 4 -21 7 -48
7 -60 1 -11 5 -19 9 -16 5 3 11 -4 14 -16 3 -12 18 -24 37 -29 41 -13 78 -13
71 -1 -4 5 1 9 9 9 9 0 16 7 16 15 0 8 5 15 10 15 7 0 10 23 8 59 -4 78 11
101 80 131 31 14 70 34 88 46 18 12 35 19 39 16 3 -4 3 1 0 10 -4 11 1 17 19
22 14 3 25 10 25 14 -3 18 2 35 8 29 7 -8 19 8 56 75 14 25 23 49 20 52 -4 3
-1 6 5 6 7 0 11 3 11 8 -1 4 0 9 1 12 27 69 11 310 -22 310 -5 0 -6 5 -3 10 3
6 -3 22 -14 36 -12 15 -21 32 -21 38 0 13 -41 52 -52 48 -4 -1 -5 4 -2 11 2 7
-16 25 -46 42 -27 16 -50 33 -50 37 0 4 -7 8 -15 8 -8 0 -15 5 -15 11 0 5 -4
7 -10 4 -5 -3 -20 0 -32 7 -30 16 -45 20 -90 21 -21 1 -38 4 -38 7 0 6 -36 11
-42 5z"/>
<path d="M2477 3187 c3 -5 -3 -6 -16 -2 -12 4 -21 2 -21 -4 0 -6 -9 -11 -19
-11 -20 0 -126 -89 -116 -98 2 -3 -1 -12 -7 -20 -7 -8 -13 -19 -15 -26 -15
-64 -22 -110 -17 -118 3 -5 0 -15 -6 -23 -9 -11 -9 -15 -1 -15 8 0 9 -6 3 -17
-5 -10 -7 -24 -5 -30 3 -7 -1 -13 -9 -13 -10 0 -9 -3 2 -10 8 -5 11 -10 5 -10
-5 0 -10 -25 -10 -56 1 -30 -3 -58 -7 -60 -4 -3 -3 -16 2 -29 5 -14 6 -25 1
-25 -5 0 -9 -15 -9 -32 0 -29 -6 -102 -18 -228 -5 -58 -14 -161 -20 -230 -3
-36 -7 -90 -10 -120 -2 -30 -6 -80 -9 -110 -2 -30 -5 -55 -5 -55 -1 0 -3 -20
-5 -45 -1 -25 -5 -76 -9 -115 -4 -38 -9 -89 -11 -112 -2 -24 -7 -47 -10 -53
-3 -5 -1 -10 5 -10 7 0 8 -5 3 -12 -4 -7 -8 -29 -9 -48 -3 -78 -8 -116 -17
-127 -6 -9 -5 -13 2 -13 7 0 9 -4 6 -10 -3 -5 -8 -40 -11 -77 -3 -37 -7 -95
-10 -128 -3 -33 -6 -79 -6 -102 -1 -24 -4 -43 -7 -43 -3 0 -7 -24 -8 -53 -1
-28 -5 -100 -7 -159 -3 -72 -1 -108 6 -108 5 0 7 -7 4 -15 -3 -9 1 -18 9 -21
7 -3 12 -11 9 -18 -2 -6 17 -33 43 -59 43 -43 51 -49 69 -46 4 0 10 -3 13 -8
10 -13 72 -33 65 -21 -5 7 -2 8 7 2 8 -4 28 -9 44 -10 49 -4 177 -15 220 -19
46 -5 174 -15 257 -20 31 -2 60 -5 65 -8 4 -3 20 -4 36 -2 15 2 27 -1 27 -6 0
-6 8 -5 20 1 11 6 20 7 20 2 0 -5 15 -9 33 -9 66 0 128 -7 133 -15 3 -4 13 -4
23 2 10 5 21 7 24 3 4 -3 23 -7 44 -9 223 -16 258 -19 275 -30 4 -3 8 0 8 6 0
6 5 8 11 4 6 -3 36 -8 67 -9 32 -2 57 -4 57 -5 0 -1 20 -3 45 -5 92 -5 125
-10 132 -20 5 -6 8 -5 8 3 0 9 7 11 23 6 12 -4 41 -8 64 -9 23 0 45 -4 49 -8
10 -9 219 -9 228 1 4 4 11 8 14 8 29 6 52 18 52 27 0 6 3 7 7 4 3 -4 11 3 17
15 6 13 23 28 36 35 14 7 22 13 17 13 -4 0 0 11 9 24 8 14 18 40 21 58 3 18 9
40 13 49 5 8 5 21 0 29 -5 8 -6 19 -2 25 3 5 7 29 8 52 1 23 5 47 9 53 3 5 0
10 -7 10 -9 0 -10 2 -1 8 6 4 11 21 11 37 -2 69 2 96 13 89 7 -4 6 2 -1 17 -7
13 -9 24 -4 26 5 2 9 29 8 61 -1 31 3 62 8 69 5 7 5 14 -2 18 -6 4 -7 12 -1
23 5 10 8 32 7 50 -1 17 0 32 3 32 3 0 7 21 8 48 5 129 15 226 24 243 5 11 6
19 1 19 -4 0 -8 9 -8 20 0 11 3 20 6 20 3 0 6 19 7 43 0 23 4 76 8 117 4 41 7
94 7 118 1 23 4 42 7 42 3 0 7 26 8 58 1 61 9 166 18 247 3 28 8 82 11 120 3
39 7 87 9 107 2 20 6 42 11 49 5 8 3 10 -6 4 -9 -6 -11 -4 -5 5 5 7 9 34 10
59 1 25 5 57 10 70 5 18 4 22 -5 16 -10 -6 -11 -4 -4 6 5 8 10 28 11 44 0 17
2 30 3 30 1 0 3 11 4 25 2 14 6 34 10 45 6 16 6 17 -3 5 -7 -9 -11 -10 -11 -3
0 6 5 15 10 18 8 5 7 12 -2 23 -10 12 -10 14 0 8 16 -9 11 89 -6 120 -6 12 -8
24 -4 28 3 4 1 10 -5 14 -6 4 -20 24 -31 45 -12 23 -22 33 -25 25 -3 -8 -6 -6
-6 5 -1 10 -5 16 -10 13 -5 -3 -12 1 -15 10 -3 8 -10 12 -16 9 -5 -3 -10 -1
-10 4 0 6 -7 11 -15 11 -8 0 -15 4 -15 9 0 6 -9 8 -20 6 -11 -2 -22 0 -25 5
-3 4 -13 7 -23 5 -9 -1 -27 1 -39 6 -13 5 -25 4 -28 -1 -3 -5 -18 -4 -36 2
-16 5 -38 8 -49 5 -11 -3 -20 -2 -20 2 0 3 -24 7 -52 8 -48 1 -133 9 -133 13
0 0 -35 2 -77 3 -43 1 -78 4 -78 7 0 3 -15 6 -32 6 -44 1 -203 12 -203 14 0 2
-99 10 -162 12 -24 1 -43 5 -43 8 0 3 -21 5 -48 6 -48 1 -217 12 -217 14 0 1
-58 7 -142 14 -29 3 -58 8 -64 12 -8 5 -9 3 -4 -6 6 -9 4 -11 -5 -5 -13 8 -44
12 -120 16 -25 1 -50 6 -57 11 -7 5 -14 5 -18 -2 -3 -6 -11 -8 -16 -4 -9 5
-66 10 -196 18 -31 2 -50 -1 -46 -7z m168 -179 c17 -1 33 -6 37 -12 5 -7 8 -7
8 2 0 7 4 11 9 8 5 -3 36 -8 70 -10 33 -3 65 -7 71 -11 5 -3 10 -1 10 5 0 6 5
8 12 4 7 -5 26 -9 43 -10 27 -2 70 -6 230 -20 28 -3 77 -7 110 -9 33 -3 80 -7
105 -10 25 -2 79 -7 120 -10 41 -4 86 -7 100 -8 14 -1 31 -6 38 -10 7 -5 12
-3 12 3 0 6 5 8 13 3 12 -7 35 -9 130 -12 33 -1 46 -5 41 -12 -5 -8 -2 -9 10
-2 11 6 38 7 67 2 27 -4 58 -6 69 -4 11 2 20 -2 20 -8 0 -7 4 -6 10 3 5 8 10
10 10 5 0 -6 21 -10 48 -9 26 0 51 -1 57 -4 10 -6 89 -13 153 -13 23 0 42 -4
42 -7 0 -4 16 -7 36 -6 24 1 44 -5 61 -20 32 -28 32 -30 9 -286 -3 -25 -6 -72
-8 -105 -1 -33 -7 -63 -13 -67 -6 -5 -5 -8 2 -8 9 0 10 -7 4 -22 -5 -13 -7
-40 -6 -61 2 -20 -1 -39 -5 -42 -5 -3 -6 -14 -3 -26 4 -12 0 -25 -8 -30 -8 -5
-9 -9 -4 -9 6 0 11 -9 11 -20 0 -11 -3 -20 -6 -20 -3 0 -5 -26 -4 -57 0 -32
-2 -62 -5 -68 -3 -5 -6 -28 -7 -50 -2 -22 -5 -71 -9 -110 -3 -38 -7 -90 -8
-115 -2 -25 -7 -52 -12 -59 -6 -10 -4 -12 5 -6 9 6 11 4 4 -6 -4 -8 -9 -35
-10 -62 0 -26 -3 -49 -5 -52 -2 -2 -4 -26 -3 -54 0 -28 -2 -49 -5 -47 -3 2 -7
-24 -8 -57 -1 -70 -6 -103 -16 -113 -4 -4 -2 -13 4 -21 9 -9 8 -17 0 -27 -9
-10 -9 -16 -1 -21 7 -4 7 -11 2 -18 -5 -7 -8 -27 -7 -44 0 -18 -2 -33 -5 -33
-3 0 -5 -24 -6 -53 -1 -28 -4 -81 -8 -117 -3 -36 -8 -90 -10 -120 -3 -30 -8
-91 -12 -135 -4 -44 -7 -95 -7 -112 0 -18 -3 -31 -7 -28 -4 2 -5 -6 -3 -18 5
-24 -24 -69 -48 -73 -8 -2 -24 -5 -36 -8 -13 -3 -23 -2 -23 2 0 4 -26 8 -58 9
-96 2 -162 7 -162 13 0 3 -28 6 -63 6 -107 3 -260 18 -277 29 -5 3 -11 1 -15
-5 -4 -6 -12 -7 -18 -3 -7 4 -39 8 -72 9 -33 1 -60 3 -60 4 0 2 -42 7 -133 13
-35 3 -66 7 -69 11 -3 3 -12 1 -20 -5 -7 -6 -13 -7 -13 -3 0 5 -28 11 -62 12
-35 2 -66 9 -70 15 -6 9 -8 9 -8 0 0 -7 -9 -10 -22 -7 -13 2 -52 7 -88 9 -36
3 -87 7 -115 10 -63 6 -168 15 -221 18 -22 2 -45 7 -51 10 -7 4 -14 3 -18 -3
-4 -6 -11 -7 -17 -4 -6 4 -36 9 -67 11 -93 6 -115 11 -132 32 -9 11 -19 17
-23 14 -3 -4 -6 2 -7 13 0 10 -2 29 -3 42 -2 12 0 22 4 22 4 0 7 19 7 42 0 24
3 79 8 123 4 44 8 95 10 113 1 18 5 35 8 39 4 3 2 12 -4 20 -6 7 -8 13 -3 13
5 0 9 15 10 33 2 81 8 133 17 151 6 13 6 16 -2 12 -6 -4 -11 -3 -11 3 0 5 3
12 8 14 4 3 7 31 7 64 0 39 5 62 15 71 8 8 10 11 3 8 -8 -4 -10 9 -7 46 10
115 12 136 20 218 4 47 8 109 8 137 1 29 4 53 7 53 3 0 5 24 6 54 0 29 2 57 5
62 3 5 6 32 7 59 5 88 8 123 15 134 4 6 2 11 -4 11 -6 0 -8 5 -3 13 4 6 9 32
10 57 7 102 9 116 16 128 5 7 4 12 -3 12 -6 0 -8 5 -4 11 3 6 8 34 10 63 4 69
11 148 19 226 3 36 8 90 10 120 13 162 28 182 130 173 28 -2 64 -5 80 -5z"/>
<path d="M3371 2495 c-1 -6 -16 -11 -33 -12 -18 0 -46 -6 -63 -13 -16 -7 -34
-12 -38 -11 -5 1 -6 -3 -2 -9 3 -5 1 -10 -5 -10 -14 0 -70 -54 -70 -68 0 -17
-39 -25 -55 -12 -8 7 -21 10 -30 7 -8 -4 -17 -2 -20 3 -6 10 -100 3 -135 -10
-3 -1 -8 -2 -12 -1 -5 0 -8 -3 -8 -9 0 -5 -7 -10 -15 -10 -8 0 -15 -4 -15 -10
0 -5 -5 -10 -11 -10 -14 0 -69 -61 -69 -77 0 -7 -5 -13 -12 -13 -6 0 -8 -3 -5
-6 3 -4 1 -16 -5 -27 -14 -26 -18 -117 -6 -140 7 -14 2 -21 -23 -35 -51 -27
-109 -82 -132 -126 -44 -84 -21 -244 42 -288 10 -7 19 -16 20 -20 0 -5 3 -8 6
-8 3 0 14 -9 25 -20 20 -20 26 -40 12 -40 -9 0 -12 -16 -14 -90 -2 -71 6 -103
32 -140 12 -17 19 -30 16 -30 -3 0 5 -11 17 -23 12 -13 24 -23 27 -23 3 0 18
-8 34 -19 25 -17 39 -21 84 -27 6 -1 12 -4 12 -8 0 -3 9 -6 20 -6 11 0 20 4
20 9 0 5 6 5 13 -1 8 -7 18 -7 27 -2 25 16 37 11 51 -21 7 -18 23 -42 35 -54
13 -13 21 -25 18 -27 -2 -3 23 -19 56 -37 33 -18 60 -29 60 -24 0 4 5 1 10 -7
8 -12 11 -13 19 -1 5 8 11 9 15 3 5 -9 57 -10 76 -2 3 1 9 2 13 1 4 -1 18 4
30 11 12 7 25 11 29 10 4 -1 34 25 66 58 37 38 62 56 68 50 5 -5 25 -11 44
-12 19 -2 38 -7 42 -12 4 -6 13 -4 22 3 12 10 16 10 16 2 0 -7 5 -9 10 -6 6 4
22 9 37 11 15 3 33 10 40 16 7 6 13 8 13 4 0 -3 8 2 18 12 10 9 29 24 41 32
12 8 36 43 53 77 27 56 30 68 25 132 -3 41 -1 69 4 65 5 -3 12 2 15 10 3 9 10
13 15 11 4 -3 17 3 29 15 11 11 20 17 20 13 0 -3 8 3 18 15 45 53 51 62 47 62
-3 0 3 17 13 38 18 38 22 118 8 157 -27 72 -39 88 -103 143 -32 26 -32 28 -18
56 17 32 21 151 5 161 -6 4 -8 10 -5 15 3 5 0 14 -7 22 -7 7 -14 20 -16 28 -2
8 -14 24 -27 36 -13 12 -21 25 -17 30 4 4 2 4 -4 1 -6 -4 -19 2 -29 13 -10 11
-26 20 -35 20 -9 0 -20 3 -24 7 -8 8 -32 13 -66 14 -14 1 -31 6 -39 13 -11 8
-13 8 -8 0 4 -8 -4 -13 -23 -16 -27 -4 -32 0 -52 39 -12 24 -26 43 -30 43 -5
0 -6 5 -3 10 3 6 2 10 -4 10 -5 0 -23 11 -39 25 -16 13 -32 22 -36 18 -3 -3
-6 -2 -6 4 0 12 -86 36 -100 28 -4 -3 -11 1 -13 7 -3 7 -6 8 -6 3z m44 -195
c-3 -5 1 -10 9 -10 14 0 33 -35 28 -52 -1 -5 2 -8 6 -8 5 0 9 -7 9 -15 0 -8
-3 -15 -7 -15 -4 0 -6 -21 -6 -48 2 -46 30 -97 48 -86 4 3 8 1 8 -3 0 -16 52
-13 81 4 16 10 29 21 29 25 0 13 64 42 95 43 16 0 37 -7 46 -16 17 -17 33 -50
30 -62 -1 -4 -2 -19 -3 -32 -1 -13 -6 -21 -10 -19 -4 3 -8 -3 -8 -12 0 -10 -3
-15 -6 -12 -8 8 -83 -65 -77 -74 2 -5 0 -8 -5 -8 -5 0 -8 -10 -7 -22 2 -25 23
-79 24 -64 1 6 7 2 14 -7 7 -11 30 -19 58 -21 76 -6 116 -23 125 -54 14 -53
13 -59 -15 -91 -28 -31 -30 -32 -100 -27 -39 2 -71 0 -71 -5 0 -5 -3 -8 -7 -7
-15 3 -43 -14 -43 -27 0 -7 -6 -18 -14 -24 -12 -10 -12 -16 1 -44 9 -18 27
-44 41 -59 14 -16 22 -28 18 -28 -4 0 0 -7 8 -16 19 -18 21 -65 4 -82 -7 -7
-8 -12 -3 -12 5 0 0 -7 -11 -15 -26 -18 -74 -27 -74 -14 0 6 -4 8 -9 5 -10 -7
-91 69 -91 85 0 6 -4 8 -9 5 -5 -3 -11 0 -14 7 -3 8 -16 13 -29 11 -12 -1 -27
-3 -33 -3 -13 -1 -60 -43 -61 -56 -1 -5 -5 -32 -8 -59 -10 -69 -9 -68 -26 -87
-20 -22 -66 -37 -55 -18 6 11 5 11 -4 3 -14 -13 -51 -7 -51 7 0 5 -6 9 -13 9
-7 0 -13 8 -14 17 -1 10 -4 30 -7 46 -2 15 0 27 5 27 6 0 7 6 3 12 -5 7 -7 26
-5 43 2 31 -26 75 -51 79 -7 1 -18 5 -25 9 -13 8 -94 -33 -87 -45 3 -4 -4 -8
-15 -8 -12 0 -21 -4 -21 -10 0 -5 -7 -10 -15 -10 -8 0 -15 -4 -15 -9 0 -6 -10
-8 -22 -5 -13 3 -28 6 -35 8 -22 4 -53 49 -53 76 0 18 14 43 40 71 22 24 40
39 40 34 0 -6 9 5 20 23 14 22 19 44 16 64 -5 32 -39 71 -65 74 -9 1 -38 4
-66 7 -27 4 -51 11 -53 17 -2 5 -7 8 -12 5 -10 -6 -34 52 -33 77 2 19 48 67
67 69 6 1 18 2 26 3 8 0 29 -2 47 -5 18 -4 35 -4 38 0 7 6 12 7 40 10 18 1 44
51 37 70 -3 8 0 11 7 7 23 -15 -14 54 -50 92 -34 36 -53 102 -29 102 5 0 7 6
4 14 -6 16 54 47 83 42 30 -6 63 -29 63 -44 0 -7 5 -10 10 -7 6 3 10 0 10 -8
0 -16 46 -50 67 -50 7 0 13 -5 13 -11 0 -6 4 -6 11 1 6 6 18 9 26 6 8 -3 13 0
11 8 -2 8 2 13 9 12 17 -4 33 30 39 80 3 23 7 52 9 65 4 25 29 54 39 45 3 -4
6 -1 6 5 0 7 16 12 41 12 24 0 38 -4 34 -10z"/>
<path d="M3263 1797 c-40 -35 -41 -76 -2 -118 57 -61 169 -24 169 56 0 32 -28
75 -49 75 -6 0 -11 4 -11 8 0 5 -17 8 -37 8 -26 -1 -48 -10 -70 -29z"/>
<path d="M1640 2691 c0 -7 -5 -9 -11 -6 -6 4 -13 -2 -16 -14 -3 -12 -9 -21
-14 -21 -15 0 -10 -69 6 -101 18 -34 54 -51 92 -44 31 5 67 41 60 60 -3 7 -3
16 1 20 14 14 8 55 -12 80 -23 29 -106 49 -106 26z"/>
</g>
</svg>
